<?xml version="1.0" encoding="UTF-8" standalone="no"?>
<!-- Created with Inkscape (http://www.inkscape.org/) -->

<svg
   xmlns:dc="http://purl.org/dc/elements/1.1/"
   xmlns:cc="http://creativecommons.org/ns#"
   xmlns:rdf="http://www.w3.org/1999/02/22-rdf-syntax-ns#"
   xmlns:svg="http://www.w3.org/2000/svg"
   xmlns="http://www.w3.org/2000/svg"
   xmlns:sodipodi="http://sodipodi.sourceforge.net/DTD/sodipodi-0.dtd"
   xmlns:inkscape="http://www.inkscape.org/namespaces/inkscape"
   width="728px"
   height="90px"
   id="svg3111"
   version="1.1"
   inkscape:version="0.48.3.1 r9886"
   sodipodi:docname="banner.svg"
   inkscape:export-filename="/home/majid/projects/EasyLoggingPP/tools/icons/banner.png"
   inkscape:export-xdpi="90"
   inkscape:export-ydpi="90">
  <defs
     id="defs3113" />
  <sodipodi:namedview
     id="base"
     pagecolor="#ffffff"
     bordercolor="#666666"
     borderopacity="1.0"
     inkscape:pageopacity="0.0"
     inkscape:pageshadow="2"
     inkscape:zoom="3"
     inkscape:cx="288.05979"
     inkscape:cy="10.449326"
     inkscape:document-units="px"
     inkscape:current-layer="layer1"
     showgrid="false"
     inkscape:window-width="1680"
     inkscape:window-height="1023"
     inkscape:window-x="0"
     inkscape:window-y="0"
     inkscape:window-maximized="1" />
  <metadata
     id="metadata3116">
    <rdf:RDF>
      <cc:Work
         rdf:about="">
        <dc:format>image/svg+xml</dc:format>
        <dc:type
           rdf:resource="http://purl.org/dc/dcmitype/StillImage" />
        <dc:title></dc:title>
      </cc:Work>
    </rdf:RDF>
  </metadata>
  <g
     id="layer1"
     inkscape:label="Layer 1"
     inkscape:groupmode="layer">
    <text
       xml:space="preserve"
       style="font-size:63.08149719px;font-style:normal;font-weight:normal;line-height:125%;letter-spacing:0px;word-spacing:0px;fill:#000000;fill-opacity:1;stroke:none;font-family:Sans"
       x="215.90128"
       y="51.309597"
       id="text3178"
       sodipodi:linespacing="125%"
       transform="scale(0.91132507,1.0973033)"><tspan
         sodipodi:role="line"
         id="tspan3180"
         x="215.90128"
         y="51.309597"
         style="font-style:italic;font-variant:normal;font-weight:normal;font-stretch:normal;font-family:Courier 10 Pitch;-inkscape-font-specification:Courier 10 Pitch Italic">Easylogging++</tspan></text>
    <text
       xml:space="preserve"
       style="font-size:10px;font-style:normal;font-weight:normal;line-height:125%;letter-spacing:0px;word-spacing:0px;fill:#000000;fill-opacity:1;stroke:none;font-family:Sans"
       x="248"
       y="84.000008"
       id="text3182"
       sodipodi:linespacing="125%"><tspan
         sodipodi:role="line"
         id="tspan3184"
         x="248"
         y="84.000008">Cross-platform logging made easier for C++ applications</tspan></text>
    <path
       style="fill:#333333;fill-opacity:1"
       d="m 239.21687,55.987832 c -1.96179,-0.933826 -3.5637,-2.869082 -4.13689,-4.997763 -0.51569,-1.915102 -0.23565,-5.770037 0.53575,-7.37487 0.89675,-1.86564 3.85313,-4.733037 5.74085,-5.568068 3.7659,-1.665834 8.47844,-2.085839 11.9805,-1.06776 1.00431,0.291961 1.91181,0.445047 2.01667,0.340191 0.41893,-0.418928 0.72036,-3.728724 0.4494,-4.934641 -0.41831,-1.861784 -1.16755,-2.822446 -2.55961,-3.281864 -1.87523,-0.618883 -4.61561,-0.210867 -7.68387,1.144051 -3.19495,1.410863 -3.91767,1.475569 -4.61384,0.413084 -1.70066,-2.595529 4.38223,-6.182528 10.52401,-6.205871 5.51893,-0.02098 9.08096,3.720615 8.533,8.963162 -0.19837,1.897963 -2.77318,16.688614 -3.09538,17.78105 -0.1464,0.496375 0.0582,0.583333 1.37233,0.583333 2.21823,0 2.83388,0.425819 2.83388,1.960065 0,1.996543 -0.67232,2.373268 -4.23543,2.373268 -3.75267,0 -3.94214,-0.165397 -3.63408,-3.172261 0.12178,-1.18859 0.15072,-2.161072 0.0643,-2.161072 -0.0864,0 -0.93965,0.827456 -1.89613,1.838791 -3.53994,3.742965 -8.51837,5.117509 -12.19549,3.367175 z m 9.15987,-5.049612 c 1.29395,-0.647338 2.83644,-1.727994 3.42775,-2.401456 1.28196,-1.460074 2.49806,-4.054523 2.80538,-5.985063 l 0.22236,-1.396831 -1.44261,-0.430135 c -0.79344,-0.236574 -2.94262,-0.428337 -4.77595,-0.42614 -2.95463,0.0035 -3.54851,0.10849 -5.22729,0.923763 -3.77309,1.832335 -5.44616,5.236899 -4.1261,8.396249 1.16482,2.78782 5.05586,3.351049 9.11646,1.319613 z"
       id="path3021"
       inkscape:connector-curvature="0" />
    <path
       style="fill:#333333;fill-opacity:1"
       d="m 196.847,55.715199 c -0.56521,-0.565213 -0.49689,-2.455493 0.11072,-3.063096 0.50847,-0.50847 1.61728,-0.785374 3.80525,-0.95028 l 1.1493,-0.08662 2.58349,-15.166666 c 1.42091,-8.341667 2.59123,-15.279167 2.60069,-15.416667 0.009,-0.1375 -0.85278,-0.25 -1.91611,-0.25 -1.06334,0 -2.11334,-0.18 -2.33334,-0.4 -0.66464,-0.664641 -0.47869,-2.500719 0.32952,-3.253682 0.70698,-0.65865 1.11154,-0.679651 13.0925,-0.679651 13.97592,0 13.84465,-0.02187 13.84465,2.306395 0,1.884982 -1.5953,9.368375 -2.19093,10.277417 -0.3972,0.606198 -0.76271,0.764883 -1.57959,0.685777 -0.96047,-0.09301 -1.07261,-0.220485 -1.16453,-1.323728 -0.0559,-0.671443 0.13156,-2.450513 0.41667,-3.953489 0.28511,-1.502976 0.51838,-2.941114 0.51838,-3.195862 0,-0.381575 -1.31668,-0.463177 -7.47352,-0.463177 l -7.47351,0 -0.18604,0.916667 c -0.10233,0.504166 -0.49245,2.791666 -0.86693,5.083333 -0.37449,2.291667 -0.7646,4.579167 -0.86693,5.083333 l -0.18604,0.916667 3.83052,0 3.83052,0 0.23326,-1.416667 c 0.12829,-0.779166 0.43812,-1.914453 0.68851,-2.52286 0.38216,-0.928599 0.60361,-1.089145 1.37937,-1 0.79147,0.09095 0.9383,0.274335 1.02289,1.277565 0.13723,1.627563 -1.45298,11.251326 -1.96012,11.862392 -0.22821,0.274968 -0.80276,0.454858 -1.27678,0.399756 -0.84074,-0.09773 -0.86135,-0.159422 -0.84058,-2.516853 l 0.0213,-2.416666 -3.7448,0 -3.7448,0 -0.18364,0.916666 c -0.101,0.504167 -0.64069,3.616667 -1.19932,6.916667 -0.55862,3.3 -1.09076,6.3375 -1.18253,6.75 l -0.16685,0.75 7.43677,0 7.43678,0 0.71671,-3.663861 c 0.84888,-4.339501 1.32185,-5.463875 2.36058,-5.611727 1.36585,-0.194413 1.82809,0.540984 1.63379,2.59928 -0.36819,3.900366 -1.65746,9.761845 -2.28528,10.389661 -0.58255,0.58255 -1.3807,0.61998 -13.21998,0.61998 -9.35555,0 -12.703,-0.102996 -13,-0.4 z"
       id="path3023"
       inkscape:connector-curvature="0" />
    <path
       style="fill:#333333;fill-opacity:1"
       d="m 299.18784,69.262966 c -0.87725,-0.61445 -0.97698,-1.99562 -0.22194,-3.073597 0.48096,-0.68666 0.77957,-0.741056 4.08334,-0.743826 l 3.56443,-0.003 3.41667,-5.624834 c 1.90501,-3.136209 3.40763,-5.973845 3.39624,-6.413676 -0.0112,-0.433864 -1.1784,-5.885022 -2.5937,-12.113684 l -2.57327,-11.324839 -1.40493,-0.277838 c -1.75405,-0.346881 -2.26642,-1.14713 -1.74535,-2.725996 0.20345,-0.616477 0.59993,-1.209132 0.88106,-1.317011 0.28112,-0.107878 2.49387,-0.196142 4.91721,-0.196142 4.72838,0 5.20607,0.152238 5.20607,1.659164 0,1.423442 -0.84996,2.277488 -2.51511,2.527192 -1.17611,0.176369 -1.47098,0.344497 -1.34983,0.769654 0.0852,0.299194 1.00941,4.44399 2.05369,9.210656 1.04428,4.766667 2.00495,8.86752 2.13483,9.113007 0.14852,0.280736 2.2113,-3.120361 5.55961,-9.166666 l 5.32348,-9.613007 -1.48777,-0.229677 c -1.67015,-0.257832 -2.03975,-0.643358 -2.04713,-2.135327 -0.009,-1.893322 0.65523,-2.134996 5.87114,-2.134996 4.79535,0 5.45709,0.167867 5.45709,1.384315 0,1.25621 -0.77459,2.262772 -2.07484,2.696186 -1.28539,0.428465 -1.51628,0.788695 -11.45183,17.867074 -5.577,9.586387 -10.14,17.569885 -10.14,17.741108 0,0.171223 0.58773,0.311317 1.30607,0.311317 2.00332,0 2.36127,0.246026 2.35549,1.618996 -0.003,0.667884 -0.12585,1.404577 -0.27343,1.637094 -0.51984,0.819 -2.61227,1.077243 -8.72842,1.077243 -5.05212,0 -6.31305,-0.09457 -6.91887,-0.5189 z"
       id="path3025"
       inkscape:connector-curvature="0" />
    <path
       style="fill:#333333;fill-opacity:1"
       d="m 280.61367,56.731126 c -1.28333,-0.122938 -3.26283,-0.518593 -4.39888,-0.879234 l -2.06554,-0.655711 -1.16677,0.792842 c -0.64173,0.436064 -1.54446,0.792843 -2.00606,0.792843 -1.51948,0 -1.62633,-0.886219 -0.67172,-5.571393 0.9652,-4.737152 1.47205,-5.85674 2.58004,-5.69903 0.56955,0.08107 0.88949,0.577486 1.46328,2.270423 1.28898,3.803081 4.32993,5.541488 9.21977,5.270625 4.3445,-0.240655 6.55913,-2.071059 6.81686,-5.634175 0.25547,-3.531801 -0.49284,-3.996269 -7.42128,-4.606316 -4.7305,-0.41652 -7.05187,-1.337496 -8.35051,-3.312967 -2.81018,-4.274801 -0.95695,-11.24439 3.61952,-13.612157 3.10858,-1.608317 6.71173,-1.80955 11.25795,-0.628748 l 3.11704,0.809596 1.27013,-0.71385 c 1.51637,-0.852249 2.34954,-0.531849 2.50056,0.961608 0.12877,1.273394 -1.13378,7.740705 -1.62722,8.335257 -0.86088,1.037295 -2.27869,0.180523 -3.40993,-2.06059 -0.71778,-1.421987 -2.89698,-3.314253 -4.38077,-3.803949 -0.68514,-0.226116 -2.23453,-0.35306 -3.46024,-0.283504 -3.97941,0.225823 -6.18167,2.078883 -6.13506,5.162246 0.0262,1.735435 0.76226,3.010303 2.01626,3.49236 0.49458,0.190124 2.85321,0.542408 5.2414,0.782854 4.65365,0.468534 6.43938,1.018249 7.93514,2.442726 1.44301,1.374245 1.97184,2.915869 1.9664,5.732317 -0.0143,7.419269 -5.28563,11.44214 -13.91037,10.615927 z"
       id="path3027"
       inkscape:connector-curvature="0" />
    <path
       style="fill:#333333;fill-opacity:1"
       d="m 338.81588,55.368273 c -0.15197,-0.410807 -0.14713,-1.197317 0.0107,-1.747797 0.15788,-0.550483 0.28705,-1.024693 0.28705,-1.0538 0,-0.40235 2.90614,-0.784953 5.96641,-0.785503 l 3.86692,-6.9e-4 2.94436,-16.749309 c 1.61939,-9.21212 3.02438,-17.161808 3.12219,-17.665975 l 0.17784,-0.916666 -3.80553,0 c -2.51541,0 -3.94113,-0.135605 -4.20552,-0.4 -0.61715,-0.617144 -0.47391,-2.192761 0.26666,-2.933334 0.61438,-0.614379 1.11111,-0.666666 6.33334,-0.666666 l 5.66666,0 0,0.871267 c 0,0.479197 -1.5,9.24455 -3.33333,19.478563 -1.83333,10.234012 -3.33333,18.691943 -3.33333,18.7954 0,0.103456 2.025,0.188103 4.5,0.188103 4.11785,0 4.55906,0.05907 5.19555,0.695553 0.77375,0.773747 0.66264,2.01601 -0.27319,3.054447 -0.48099,0.53373 -1.48591,0.583333 -11.8181,0.583333 l -11.29241,0 -0.27631,-0.746926 0,0 z"
       id="path3029"
       inkscape:connector-curvature="0" />
    <path
       style="fill:#333333;fill-opacity:1"
       d="m 382.78034,56.79124 c -6.34017,-1.178413 -10.03031,-6.143786 -10.03031,-13.496555 0,-10.53263 7.06324,-18.823035 16.05314,-18.842196 8.112,-0.01729 13.37719,6.807537 12.30809,15.953946 -0.73426,6.281795 -3.37153,10.973955 -7.93131,14.111164 -2.81207,1.934753 -7.13637,2.880164 -10.39961,2.273641 z m 6.81277,-4.847422 c 1.98224,-0.937751 4.4342,-3.365843 5.49122,-5.437773 1.74169,-3.414005 2.28305,-9.11805 1.18044,-12.437715 -0.70948,-2.136045 -2.89297,-4.424335 -4.70067,-4.926282 -7.6375,-2.120716 -14.45354,4.304665 -14.49803,13.667066 -0.0183,3.843051 0.67016,5.946188 2.56737,7.8434 1.65905,1.659051 2.78303,2.057789 5.91754,2.099289 1.77645,0.02352 2.6562,-0.152334 4.04213,-0.807985 z"
       id="path3031"
       inkscape:connector-curvature="0" />
    <path
       style="fill:#333333;fill-opacity:1"
       d="m 412.66546,69.432449 c -0.88817,-0.149053 -1.90067,-0.52966 -2.25,-0.84579 -0.86111,-0.779303 -0.83275,-2.607166 0.0542,-3.494143 0.64595,-0.645957 0.9261,-0.67477 4.4503,-0.45775 5.68413,0.350033 7.67876,-0.548043 9.51888,-4.28586 0.95322,-1.936257 2.32684,-7.339361 2.33709,-9.192827 0.004,-0.744084 -0.0887,-0.706666 -1.5204,0.613037 -5.34724,4.92891 -12.67002,3.605212 -15.85587,-2.866177 -0.95648,-1.942873 -1.08713,-2.559765 -1.21411,-5.732453 -0.10554,-2.637084 0.003,-4.114859 0.41991,-5.721953 2.29586,-8.848038 9.61791,-14.468946 16.31267,-12.522727 1.98257,0.576349 4.63806,2.624806 5.0386,3.886802 0.34191,1.077269 0.72295,0.708965 0.94537,-0.91378 0.31633,-2.307883 0.54023,-2.450295 3.85235,-2.450295 3.13138,0 3.69252,0.252137 3.69252,1.659164 0,1.489058 -0.85335,2.29842 -2.67864,2.540553 -0.91008,0.120727 -1.65469,0.321021 -1.65469,0.445098 0,1.258483 -5.1771,29.059935 -5.71468,30.688298 -1.70982,5.17914 -4.74608,7.839307 -9.84917,8.629177 -2.66867,0.413063 -3.53291,0.41624 -5.88436,0.02163 l 0,-7e-6 z m 9.82636,-19.685241 c 3.50803,-1.755512 5.981,-6.211962 6.47554,-11.669301 0.30419,-3.356947 -0.35364,-5.674739 -2.08923,-7.361094 -1.52361,-1.48039 -2.63284,-1.936007 -4.70283,-1.931691 -3.22655,0.0067 -6.57006,2.484556 -8.25395,6.11689 -1.14372,2.467131 -1.56886,4.941957 -1.41213,8.220222 0.1137,2.377985 0.29465,3.141212 1.05053,4.431034 1.72891,2.950166 5.54692,3.887963 8.93207,2.19394 l 0,0 z"
       id="path3033"
       inkscape:connector-curvature="0" />
    <path
       style="fill:#333333;fill-opacity:1"
       d="m 447.34448,69.434213 c -2.46876,-0.414774 -3.44727,-1.598607 -2.81663,-3.407657 0.50594,-1.451323 1.20039,-1.62825 5.40443,-1.37691 3.66865,0.219333 3.87898,0.195047 5.5802,-0.644287 1.9656,-0.96977 2.92886,-2.17405 4.09944,-5.125156 0.84178,-2.122187 2.05845,-7.98608 1.72597,-8.318558 -0.115,-0.115001 -0.78769,0.387114 -1.49486,1.11581 -3.92391,4.043318 -10.13881,4.086692 -13.87089,0.0968 -1.86967,-1.99883 -2.71351,-3.863141 -3.1393,-6.935723 -0.85579,-6.175459 1.68759,-13.577157 5.85494,-17.038965 3.28863,-2.731856 7.50284,-3.860488 10.81713,-2.896997 1.93475,0.562445 4.73251,2.693847 5.11406,3.896005 0.29132,0.91787 0.82803,0.476233 0.82803,-0.681353 0,-0.527245 0.14629,-1.343393 0.32509,-1.813661 0.31762,-0.835408 0.39812,-0.855033 3.50714,-0.855033 3.05515,0 3.19694,0.03264 3.55491,0.818313 0.79091,1.73584 -0.8524,3.51502 -3.24658,3.51502 -0.90232,0 -0.66198,-1.039407 -3.46835,15 -2.48095,14.17949 -2.807,15.654843 -4.02262,18.202223 -1.72277,3.610147 -4.70318,5.746884 -8.98493,6.44155 -2.43464,0.394994 -3.45815,0.396514 -5.76718,0.0086 l 0,7e-6 z m 9.65869,-19.70544 c 3.85666,-1.795081 6.46657,-6.966685 6.53111,-12.941551 0.0227,-2.100547 -0.12217,-2.879419 -0.7797,-4.192246 -1.11885,-2.233865 -2.84471,-3.533162 -4.96354,-3.736756 -5.54016,-0.532339 -9.77786,3.925787 -10.69662,11.253012 -0.71119,5.671867 1.20871,9.575489 5.06512,10.298604 1.7882,0.335306 3.03737,0.15966 4.84363,-0.681063 z"
       id="path3035"
       inkscape:connector-curvature="0" />
    <path
       style="fill:#333333;fill-opacity:1"
       d="m 477.06788,55.314475 c -0.48881,-1.072817 0.0304,-2.579543 1.07211,-3.111028 0.51859,-0.264593 2.38553,-0.413509 5.22368,-0.416667 2.42917,-0.0027 4.41983,-0.04241 4.42369,-0.08825 0.004,-0.04583 0.87501,-4.995834 1.93589,-11 l 1.92886,-10.916667 -2.74752,0 c -3.77178,0 -4.45759,-0.298488 -4.45759,-1.940087 0,-2.216298 0.46482,-2.393246 6.28671,-2.393246 3.75221,0 5.10629,0.10815 5.21681,0.416666 0.0821,0.229167 -0.86815,6.143815 -2.11164,13.143663 l -2.2609,12.726996 4.94731,0.106337 c 5.35954,0.115198 5.57308,0.192573 5.58327,2.023004 0.003,0.504167 -0.29489,1.216667 -0.66156,1.583334 -0.64128,0.641285 -1.11111,0.666666 -12.34048,0.666666 l -11.67381,0 -0.36483,-0.800724 z"
       id="path3037"
       inkscape:connector-curvature="0" />
    <path
       style="fill:#333333;fill-opacity:1"
       d="m 493.75229,17.914743 c -0.28162,-0.339339 -0.41469,-1.250629 -0.36529,-2.501589 0.12855,-3.254993 0.99752,-4.797623 2.904,-5.155281 0.59719,-0.112034 1.4016,-0.03469 1.78757,0.171875 0.60292,0.322672 0.70177,0.680621 0.70177,2.541219 0,2.468394 -0.57972,4.145384 -1.70563,4.934001 -0.99168,0.6946 -2.74977,0.699772 -3.32242,0.0098 z"
       id="path3039"
       inkscape:connector-curvature="0" />
    <path
       style="fill:#333333;fill-opacity:1"
       d="m 509.51367,55.715199 c -0.58365,-0.583647 -0.48888,-2.084526 0.18333,-2.903509 0.34743,-0.423283 1.18773,-0.81228 2.07784,-0.961881 l 1.49449,-0.251182 1.72119,-9.658381 c 0.94665,-5.312109 1.8134,-10.22088 1.92611,-10.90838 0.19011,-1.159687 0.14599,-1.25 -0.61066,-1.25 -0.44856,0 -1.20033,-0.146287 -1.6706,-0.325083 -0.71452,-0.271659 -0.85503,-0.537069 -0.85503,-1.615004 0,-2.042765 0.64657,-2.393246 4.41513,-2.393246 3.4812,0 3.68486,0.116528 3.20023,1.831132 -0.61065,2.160433 -0.38097,2.344973 1.15567,0.92855 6.62499,-6.106708 14.27292,-4.261388 14.81098,3.573651 0.11145,1.622747 -0.23581,4.302626 -1.38327,10.67512 -0.84264,4.679649 -1.53208,8.692149 -1.53208,8.916666 0,0.224518 0.41663,0.408214 0.92583,0.408214 2.15806,0 3.20415,2.203353 1.74084,3.666667 -0.60226,0.602254 -1.11111,0.666666 -5.26667,0.666666 -4.95599,0 -5.4,-0.139484 -5.4,-1.696405 0,-1.349404 0.96399,-2.283743 2.64823,-2.566776 l 1.48155,-0.248972 1.41892,-7.993923 c 0.7804,-4.396658 1.4262,-8.788873 1.43511,-9.760477 0.0293,-3.191296 -1.51464,-4.73751 -4.7231,-4.73019 -3.00755,0.0069 -6.75051,2.70068 -8.2952,5.970075 -0.5758,1.218719 -3.26968,14.495356 -3.29369,16.232779 -0.003,0.205027 0.61647,0.456153 1.37622,0.558058 0.75976,0.101904 1.50746,0.384155 1.66156,0.627223 0.49697,0.783865 0.30854,2.257134 -0.37626,2.941942 -0.60226,0.602254 -1.11112,0.666666 -5.26667,0.666666 -3.13333,0 -4.72754,-0.127536 -5,-0.4 z"
       id="path3041"
       inkscape:connector-curvature="0" />
    <path
       style="fill:#333333;fill-opacity:1"
       d="m 550.9988,69.432449 c -0.88818,-0.149053 -1.90068,-0.52966 -2.25,-0.84579 -0.86293,-0.78094 -0.83269,-2.607236 0.0579,-3.497846 0.64946,-0.64946 0.92209,-0.678207 4.3346,-0.457034 5.79169,0.375377 8.017,-0.682603 9.84801,-4.682036 0.77018,-1.682304 2.1087,-7.227828 2.11912,-8.779539 0.005,-0.726079 -0.10107,-0.683823 -1.57811,0.629455 -5.4887,4.880145 -12.6118,3.573998 -15.79732,-2.89672 -0.95647,-1.942873 -1.08713,-2.559765 -1.21411,-5.732453 -0.10554,-2.637084 0.003,-4.114859 0.41991,-5.721953 2.29587,-8.848038 9.61791,-14.468946 16.31267,-12.522727 1.98257,0.576349 4.63806,2.624806 5.0386,3.886802 0.27796,0.875762 0.82317,0.800413 0.82544,-0.114075 0.001,-0.4125 0.15807,-1.3125 0.349,-2 l 0.34714,-1.25 3.08433,0 c 3.33304,0 3.88434,0.235483 3.88434,1.659164 0,1.489058 -0.85336,2.29842 -2.67864,2.540553 -0.91008,0.120727 -1.6547,0.296794 -1.6547,0.391261 0,0.392847 -4.38424,25.112371 -4.86125,27.409022 -1.58229,7.618253 -4.62759,11.021983 -10.7026,11.96229 -2.66867,0.413063 -3.53291,0.41624 -5.88435,0.02163 l 0,-7e-6 z m 9.80191,-19.672769 c 1.68613,-0.84345 3.77138,-3.106775 4.80254,-5.212674 0.91956,-1.877994 1.84375,-5.921767 1.84375,-8.067296 0,-3.163449 -1.9639,-6.413333 -4.43836,-7.344665 -3.73474,-1.405668 -8.46602,1.032934 -10.59035,5.458491 -1.29079,2.689065 -1.73895,5.114778 -1.57573,8.528698 0.11369,2.377985 0.29464,3.141212 1.05053,4.431034 1.72323,2.940471 5.54682,3.887572 8.90762,2.206412 z"
       id="path3043"
       inkscape:connector-curvature="0" />
    <path
       style="fill:#333333;fill-opacity:1"
       d="m 593.4006,52.145249 c -0.77558,-0.627436 -0.7884,-0.738023 -0.88897,-7.666668 l -0.10205,-7.030048 -5.32977,0 c -5.21433,0 -5.3475,-0.01772 -6.14796,-0.818182 -0.99954,-0.999544 -1.03458,-1.816811 -0.12732,-2.970199 l 0.69086,-0.878286 5.47581,0 5.4758,0 0,-6.650982 c 0,-4.30827 0.13523,-6.94778 0.38392,-7.493593 0.69457,-1.524422 2.53759,-1.524422 3.23216,0 0.24869,0.545813 0.38392,3.185323 0.38392,7.493593 l 0,6.650982 5.5,0 c 5.05556,0 5.55387,0.05387 6.16667,0.666667 0.95917,0.959172 0.86295,2.463886 -0.21162,3.30914 -0.80442,0.632753 -1.32151,0.69086 -6.14796,0.69086 l -5.26967,0 -0.10204,7.030048 c -0.10057,6.928645 -0.1134,7.039232 -0.88897,7.666668 -0.43281,0.35014 -0.90369,0.636617 -1.04641,0.636617 -0.14271,0 -0.61359,-0.286477 -1.0464,-0.636617 z"
       id="path3045"
       inkscape:connector-curvature="0" />
    <path
       style="fill:#333333;fill-opacity:1"
       d="m 628.42785,52.558769 c -1.16488,-0.468686 -1.40965,-1.960896 -1.40965,-8.593683 l 0,-6.516553 -5.34849,0 c -5.23419,0 -5.36597,-0.01748 -6.16666,-0.818182 -0.99955,-0.999544 -1.03458,-1.816811 -0.12733,-2.970199 l 0.69086,-0.878286 5.47581,0 5.47581,0 0,-6.68858 c 0,-7.703916 0.23918,-8.625865 2.24144,-8.639649 1.48582,-0.01023 1.75856,1.33053 1.75856,8.645009 l 0,6.68322 5.5,0 c 5.05555,0 5.55387,0.05387 6.16666,0.666667 0.95918,0.959172 0.86295,2.463886 -0.21162,3.30914 -0.80441,0.632753 -1.3215,0.69086 -6.14795,0.69086 l -5.26967,0 -0.10205,7.030048 c -0.10057,6.928645 -0.11339,7.039232 -0.88897,7.666668 -0.82042,0.663714 -0.93989,0.693897 -1.63675,0.41352 l 0,0 z"
       id="path3047"
       inkscape:connector-curvature="0" />
    <path
       style="fill:#333333;fill-opacity:1"
       d="m 136.20625,68.342766 -0.0831,-8.186864 -7.89277,-0.07882 -7.89275,-0.07883 0,-2.355112 0,-2.355112 7.97091,0 7.97089,0 0,-8.260618 0,-8.260621 2.1881,0 2.18809,0 0.0138,7.154288 0.0138,7.154286 2.62996,-7.519934 c 1.44648,-4.135965 2.80068,-7.820997 3.00934,-8.188964 0.30766,-0.542598 11.14694,-10.476888 21.13181,-19.367493 l 1.94911,-1.735505 6.92232,6.411809 6.92231,6.411812 2.28442,-2.141686 2.28443,-2.141687 -6.24713,-6.048984 c -5.66467,-5.484889 -6.20168,-6.091979 -5.75875,-6.510041 0.44297,-0.418061 1.12711,0.143675 7.33627,6.023747 l 6.84775,6.484803 -13.80791,13.138852 -13.80789,13.13885 -8.53097,2.054789 -8.53097,2.054788 5.63957,0.08041 5.63957,0.08041 0,2.353521 0,2.353522 -7.97091,0 -7.9709,0 0,8.260619 0,8.26062 -2.18316,0 -2.18315,0 -0.0831,-8.186864 z m 8.44997,-14.667048 c 0.10344,-0.09762 -0.31421,-0.651513 -0.92806,-1.230884 l -1.11611,-1.053402 -0.50933,1.410814 c -0.28013,0.775945 -0.50934,1.513572 -0.50934,1.639168 0,0.234435 2.72496,-0.446793 3.06284,-0.765696 z m 9.71146,-2.213481 c 3.8453,-0.962563 7.0523,-1.80753 7.12664,-1.877704 0.17115,-0.161528 -0.47092,-6.148748 -0.68061,-6.346657 -0.0856,-0.08077 -1.92194,0.155323 -4.08082,0.524629 -2.15888,0.369309 -3.96762,0.624385 -4.01944,0.566834 -0.0518,-0.05754 0.11254,-1.539891 0.36502,-3.2941 0.25256,-1.754206 0.38565,-3.258896 0.29575,-3.343754 -0.21907,-0.206751 -5.9427,0.45908 -6.20177,0.721451 -0.11206,0.113493 -1.05361,2.719406 -2.09232,5.79092 l -1.88855,5.584567 1.57621,1.71723 c 0.86692,0.944474 1.80845,1.71486 2.09232,1.711965 0.28384,-0.003 3.66224,-0.792818 7.50757,-1.755381 l 0,0 z m 25.59344,-18.90592 2.57024,-2.522706 -1.68257,-1.5683 c -0.9254,-0.862564 -1.83039,-1.519605 -2.01106,-1.460093 -0.18067,0.05952 -4.00047,3.551798 -8.48841,7.760633 l -8.15991,7.652426 0.32985,3.093364 c 0.18143,1.701351 0.32986,3.20486 0.32986,3.341132 0,0.216944 9.67464,-8.996609 17.112,-16.296456 l 0,0 z m -21.06007,9.6014 2.45992,-0.444267 8.32424,-7.710713 c 4.57835,-4.240894 8.36109,-7.796132 8.4061,-7.90053 0.045,-0.104389 -0.4473,-0.674805 -1.09404,-1.267568 l -1.17589,-1.077751 -10.15899,9.408331 c -5.58745,5.174583 -9.948,9.414731 -9.69011,9.42255 0.25787,0.0078 1.57583,-0.185705 2.92877,-0.430052 l 0,0 z m 5.96865,-9.870799 9.9878,-9.430101 -1.23728,-1.02426 -1.23727,-1.024261 -8.53751,8.02043 c -4.69565,4.411235 -8.6549,8.219567 -8.79833,8.462961 -0.38356,0.650808 -0.75706,4.425333 -0.4379,4.425333 0.15,0 4.76719,-4.243545 10.26049,-9.430102 l 0,0 z m -11.44327,4.119704 c 0.63132,0 2.63943,-1.731182 9.48431,-8.176387 l 8.68342,-8.176387 -0.99539,-0.969299 c -0.54749,-0.533115 -1.11148,-0.969299 -1.25337,-0.969299 -0.27889,0 -20.56257,18.267387 -20.56257,18.518549 0,0.08355 0.86462,0.06661 1.92137,-0.03764 1.05673,-0.104252 2.28175,-0.189539 2.72223,-0.189539 z"
       id="path3266"
       inkscape:connector-curvature="0" />
    <path
       style="fill:#333333;fill-opacity:1"
       d=""
       id="path3268"
       inkscape:connector-curvature="0" />
  </g>
</svg>
