<?xml version="1.0" encoding="UTF-8" standalone="no"?>
<!-- Created with Inkscape (http://www.inkscape.org/) -->

<svg
   xmlns:dc="http://purl.org/dc/elements/1.1/"
   xmlns:cc="http://creativecommons.org/ns#"
   xmlns:rdf="http://www.w3.org/1999/02/22-rdf-syntax-ns#"
   xmlns:svg="http://www.w3.org/2000/svg"
   xmlns="http://www.w3.org/2000/svg"
   xmlns:sodipodi="http://sodipodi.sourceforge.net/DTD/sodipodi-0.dtd"
   xmlns:inkscape="http://www.inkscape.org/namespaces/inkscape"
   version="1.1"
   width="48"
   height="48"
   id="svg2985"
   inkscape:version="0.48.3.1 r9886"
   sodipodi:docname="logo.svg">
  <sodipodi:namedview
     pagecolor="#ffffff"
     bordercolor="#666666"
     borderopacity="1"
     objecttolerance="10"
     gridtolerance="10"
     guidetolerance="10"
     inkscape:pageopacity="0"
     inkscape:pageshadow="2"
     inkscape:window-width="1680"
     inkscape:window-height="1023"
     id="namedview3230"
     showgrid="false"
     inkscape:zoom="4.9166667"
     inkscape:cx="24"
     inkscape:cy="24"
     inkscape:window-x="0"
     inkscape:window-y="0"
     inkscape:window-maximized="1"
     inkscape:current-layer="svg2985" />
  <defs
     id="defs2987" />
  <metadata
     id="metadata2990">
    <rdf:RDF>
      <cc:Work
         rdf:about="">
        <dc:format>image/svg+xml</dc:format>
        <dc:type
           rdf:resource="http://purl.org/dc/dcmitype/StillImage" />
        <dc:title />
      </cc:Work>
    </rdf:RDF>
  </metadata>
  <path
     style="fill:#333333;fill-opacity:1"
     d="m 12.155761,40.281355 -0.05407,-5.644068 -5.1355932,-0.05434 -5.135594,-0.05434 0,-1.623627 0,-1.623626 5.186441,0 5.1864412,0 0,-5.694915 0,-5.694916 1.423729,0 1.423729,0 0.0093,4.932204 0.0093,4.932203 1.711242,-5.184283 c 0.941182,-2.851356 1.822321,-5.391837 1.958085,-5.645515 0.200196,-0.37407 7.253006,-7.222823 13.749875,-13.3520525 l 1.268232,-1.196467 4.504153,4.420336 4.504151,4.4203365 1.486409,-1.47649 1.486412,-1.47649 -4.064829,-4.1702015 c -3.685839,-3.781312 -4.035262,-4.199843 -3.747047,-4.488057 0.288214,-0.288214 0.733363,0.09905 4.773492,4.152803 l 4.455637,4.4706575 -8.984408,9.057995 -8.984406,9.057994 -5.550856,1.416582 -5.550858,1.416582 3.669501,0.05544 3.669501,0.05544 0,1.62253 0,1.62253 -5.186441,0 -5.18644,0 0,5.694915 0,5.694916 -1.420512,0 -1.420511,0 -0.05406,-5.644068 z m 5.498156,-10.111542 c 0.0673,-0.0673 -0.204444,-0.449156 -0.603866,-0.848577 l -0.726221,-0.726222 -0.331406,0.972623 c -0.182273,0.534941 -0.331406,1.043465 -0.331406,1.130052 0,0.16162 1.773044,-0.308022 1.992899,-0.527876 z m 6.318964,-1.525985 c 2.502035,-0.663596 4.588733,-1.246121 4.637111,-1.294499 0.11136,-0.111358 -0.306421,-4.23898 -0.442861,-4.37542 -0.05568,-0.05568 -1.250546,0.107081 -2.655266,0.361682 -1.404718,0.254604 -2.581617,0.430455 -2.615331,0.390779 -0.03371,-0.03967 0.07316,-1.061609 0.237502,-2.27097 0.164341,-1.209359 0.250937,-2.246701 0.192436,-2.305202 -0.142536,-0.142535 -3.866751,0.316492 -4.035318,0.497372 -0.07292,0.07824 -0.685551,1.874773 -1.36141,3.992291 l -1.228833,3.850031 1.025601,1.183867 c 0.564081,0.651126 1.176716,1.182234 1.36141,1.180238 0.184694,-0.002 2.382926,-0.546573 4.884959,-1.210169 l 0,0 z M 40.625816,15.609985 42.298189,13.870818 41.203396,12.789624 C 40.601261,12.194968 40.012417,11.742 39.894853,11.783028 c -0.117563,0.04103 -2.602989,2.448629 -5.52317,5.350222 l -5.309419,5.275624 0.214631,2.132581 c 0.118048,1.172921 0.214632,2.209448 0.214632,2.303394 0,0.149563 6.29501,-6.20231 11.134289,-11.234864 l 0,0 z m -13.703188,6.619257 1.600592,-0.30628 5.416357,-5.315807 c 2.978996,-2.923695 5.44032,-5.374695 5.46961,-5.446668 0.02929,-0.07197 -0.291049,-0.465214 -0.711864,-0.873868 l -0.765118,-0.7430065 -6.61017,6.4861535 c -3.635593,3.567385 -6.472881,6.490566 -6.305085,6.495956 0.167797,0.0054 1.025352,-0.128026 1.905678,-0.29648 l 0,0 z m 3.883623,-6.804982 6.498781,-6.5011615 -0.805058,-0.70613 -0.805058,-0.706131 -5.555123,5.5293265 c -3.055318,3.041129 -5.63149,5.666614 -5.724824,5.834411 -0.249565,0.44867 -0.492592,3.050848 -0.284929,3.050848 0.09759,0 3.10188,-2.925523 6.676211,-6.501163 l 0,0 z m -7.445805,2.840146 c 0.41078,0 1.717397,-1.193486 6.171171,-5.636845 l 5.650057,-5.6368445 -0.647684,-0.66824 c -0.356225,-0.367532 -0.72321,-0.66824 -0.815522,-0.66824 -0.181461,0 -13.379484,12.5936345 -13.379484,12.7667865 0,0.0576 0.562579,0.04592 1.250175,-0.02595 0.687595,-0.07187 1.484676,-0.130669 1.771287,-0.130669 z"
     id="path3266"
     inkscape:connector-curvature="0" />
  <path
     style="fill:#333333;fill-opacity:1"
     d=""
     id="path3268"
     inkscape:connector-curvature="0" />
</svg>
