<?xml version="1.0" encoding="UTF-8" standalone="no"?>
<!-- Created with Inkscape (http://www.inkscape.org/) -->

<svg
   xmlns:dc="http://purl.org/dc/elements/1.1/"
   xmlns:cc="http://creativecommons.org/ns#"
   xmlns:rdf="http://www.w3.org/1999/02/22-rdf-syntax-ns#"
   xmlns:svg="http://www.w3.org/2000/svg"
   xmlns="http://www.w3.org/2000/svg"
   xmlns:sodipodi="http://sodipodi.sourceforge.net/DTD/sodipodi-0.dtd"
   xmlns:inkscape="http://www.inkscape.org/namespaces/inkscape"
   version="1.1"
   width="48"
   height="48"
   id="svg2985"
   inkscape:version="0.48.3.1 r9886"
   sodipodi:docname="logo-inkscape.svg">
  <sodipodi:namedview
     pagecolor="#ffffff"
     bordercolor="#666666"
     borderopacity="1"
     objecttolerance="10"
     gridtolerance="10"
     guidetolerance="10"
     inkscape:pageopacity="0"
     inkscape:pageshadow="2"
     inkscape:window-width="1680"
     inkscape:window-height="1023"
     id="namedview3230"
     showgrid="false"
     inkscape:zoom="4.9166667"
     inkscape:cx="24"
     inkscape:cy="24"
     inkscape:window-x="0"
     inkscape:window-y="0"
     inkscape:window-maximized="1"
     inkscape:current-layer="svg2985" />
  <defs
     id="defs2987" />
  <metadata
     id="metadata2990">
    <rdf:RDF>
      <cc:Work
         rdf:about="">
        <dc:format>image/svg+xml</dc:format>
        <dc:type
           rdf:resource="http://purl.org/dc/dcmitype/StillImage" />
        <dc:title />
      </cc:Work>
    </rdf:RDF>
  </metadata>
  <path
     style="fill:#333333;fill-opacity:1"
     d=""
     id="path3268"
     inkscape:connector-curvature="0" />
  <path
     style="fill:#333333;fill-opacity:1"
     d="m 11.206415,41.132488 -0.05592,-5.911277 -5.3116433,-0.05691 -5.31163021,-0.05692 0,-1.700495 0,-1.700494 5.36423001,0 5.3642165,0 0,-5.964531 0,-5.964532 1.472538,0 1.472532,0 0.0093,5.165711 0.0093,5.16571 1.7699,-5.429724 c 0.973446,-2.986349 1.88479,-5.647104 2.025213,-5.912793 0.207048,-0.391779 7.501621,-7.564775 14.221198,-13.9841834 l 1.311704,-1.2531111 4.658554,4.6296087 4.658548,4.6296108 1.537359,-1.546391 1.537366,-1.5463932 -4.204167,-4.3676329 c -3.812217,-3.9603316 -4.173611,-4.39867727 -3.87553,-4.70053647 0.298108,-0.3018585 0.758518,0.1037397 4.937133,4.34941077 l 4.60837,4.6823136 -9.29239,9.4868302 -9.292377,9.486829 -5.741137,1.483648 -5.741137,1.483648 3.795295,0.05806 3.795294,0.05806 0,1.699346 0,1.699346 -5.36423,0 -5.364223,0 0,5.964531 0,5.964532 -1.469214,0 -1.469207,0 -0.05592,-5.911277 z m 5.686626,-10.590255 c 0.06961,-0.07049 -0.211456,-0.470421 -0.624562,-0.888753 l -0.751115,-0.760602 -0.342767,1.018669 c -0.18852,0.560267 -0.342773,1.092866 -0.342773,1.183552 0,0.169272 1.833832,-0.322604 2.061217,-0.552866 z m 6.535578,-1.598231 c 2.587794,-0.695013 4.746028,-1.305116 4.796057,-1.355785 0.11518,-0.11663 -0.316918,-4.439667 -0.458034,-4.582566 -0.05761,-0.05832 -1.293419,0.11215 -2.746293,0.378805 -1.452875,0.266657 -2.670113,0.450834 -2.704987,0.409279 -0.03486,-0.04155 0.07574,-1.111869 0.24565,-2.378485 0.169967,-1.266614 0.259533,-2.353067 0.199033,-2.414338 -0.147429,-0.149283 -3.999294,0.331476 -4.173642,0.52092 -0.07541,0.08195 -0.709054,1.96353 -1.408081,4.181299 l -1.270948,4.032303 1.060751,1.239916 c 0.583416,0.681952 1.217043,1.238205 1.408081,1.236114 0.191017,-0.0022 2.464599,-0.572449 5.052413,-1.267462 l 0,0 z M 40.652387,15.293094 42.382096,13.47159 41.249767,12.339208 c -0.622772,-0.622809 -1.231808,-1.097222 -1.353395,-1.054252 -0.121586,0.04298 -2.69222,2.564555 -5.712495,5.603519 l -5.491422,5.525389 0.221981,2.233545 c 0.122098,1.228451 0.221988,2.314051 0.221988,2.412445 0,0.156643 6.510799,-6.495948 11.515963,-11.76676 l 0,0 z m -14.172919,6.932634 1.655467,-0.32078 5.602012,-5.567475 c 3.081119,-3.062112 5.626812,-5.62915 5.657103,-5.70453 0.03028,-0.07537 -0.301023,-0.487239 -0.736263,-0.9152402 l -0.791346,-0.778184 -6.836755,6.7932302 c -3.760219,3.736277 -6.694763,6.79785 -6.52121,6.803496 0.173541,0.0056 1.060496,-0.134087 1.970992,-0.310517 l 0,0 z m 4.016757,-7.127151 6.721549,-6.8089492 -0.83266,-0.7395609 -0.832653,-0.7395616 -5.745538,5.7911037 c -3.160059,3.185107 -5.824539,5.93489 -5.921064,6.110631 -0.258126,0.469912 -0.509483,3.195286 -0.294696,3.195286 0.100947,0 3.208204,-3.064027 6.905062,-6.808949 l 0,0 z m -7.701044,2.974607 c 0.424863,0 1.776272,-1.249989 6.382711,-5.903711 L 35.021624,6.2657606 34.351751,5.565884 C 33.983303,5.1809515 33.603752,4.8660074 33.508263,4.8660074 c -0.187686,0 -13.838113,13.1898586 -13.838113,13.3712086 0,0.06033 0.581868,0.0481 1.293036,-0.02718 0.711153,-0.07527 1.535562,-0.136855 1.831995,-0.136855 z"
     id="path3266"
     inkscape:connector-curvature="0" />
</svg>
